<svg width="150" height="150" viewBox="-5 -8 35 40" align="center" xmlns="http://www.w3.org/2000/svg"><path d="M15 20a3 3 0 1 1-6 0 3 3 0 1 1 6 0" fill="purple"/><path d="M12 0a1.5 1.5 0 0 0-1.5 1.5c0 .183.034.37.094.531-1.361.198-2.453.688-3.25 1.469-.846.829-1.25 1.965-1.25 3.375 0 2.24-.458 4.381-1.313 6.406A13 13 0 0 1 1 18.344q-.001.667.5 1.156c.501.489.73.5 1.188.5h18.624c.459 0 .853-.175 1.188-.5s.5-.712.5-1.156a13 13 0 0 1-3.781-5.063 16.35 16.35 0 0 1-1.313-6.406c0-1.41-.404-2.546-1.25-3.375-.797-.78-1.889-1.271-3.25-1.469.06-.162.094-.348.094-.531A1.5 1.5 0 0 0 12 0" fill="pink"/><path d="M12 17c-1.657 0-3 1.3-3 3 0 1.6 1.343 3 3 3z"/><path fill="purple" d="M12 0c-.828 0-1.5.6-1.5 1.5 0 .1.034.3.094.5-1.361.2-2.453.7-3.25 1.5-.846.8-1.25 1.9-1.25 3.3 0 2.3-.458 4.4-1.313 6.4-.855 2.1-2.106 3.7-3.781 5.1 0 .5.165.8.5 1.2.335.3.73.5 1.188.5H12z"/><path d="M9 20c0 .3.074.6.188 1h5.624c.114-.4.188-.7.188-1z"/></svg>